<svg width="50.00000000000001" height="50.00000000000001" xmlns="http://www.w3.org/2000/svg">
 <title/>

 <g>
  <title>background</title>
  <rect fill="none" id="canvas_background" height="402" width="582" y="-1" x="-1"/>
 </g>
 <g>
  <title>Layer 1</title>
  <g id="Page-1" fill-rule="evenodd" fill="none">
   <g id="Mail" fill="#000000">
    <path fill="#0f1568" id="Oval-1" d="m25,0c-13.80712,0 -25,11.19288 -25,25c0,13.80712 11.19288,25 25,25c13.80712,0 25,-11.19288 25,-25c0,-13.80712 -11.19288,-25 -25,-25zm0,3c-12.15027,0 -22,9.84973 -22,22c0,12.15027 9.84973,22 22,22c12.15027,0 22,-9.84973 22,-22c0,-12.15027 -9.84973,-22 -22,-22zm12,28.96467l0,-14.96467l-8.73712,8.46429l8.73712,6.50038zm-24,0l8.73694,-6.50129l-8.73694,-8.46338l0,14.96467zm9.91402,-5.35993l-9.91402,6.39526l24,0l-9.91425,-6.39526l-2.08575,2.02034l-2.08598,-2.02034zm-9.19402,-9.60474l11.28,9.05813l11.28,-9.05813l-22.56,0zm0,0"/>
   </g>
  </g>
 </g>
</svg>