<svg width="50" height="50" xmlns="http://www.w3.org/2000/svg">
 <title/>

 <g>
  <title>background</title>
  <rect fill="none" id="canvas_background" height="402" width="582" y="-1" x="-1"/>
 </g>
 <g>
  <title>Layer 1</title>
  <g id="Page-1" fill-rule="evenodd" fill="none">
   <g id="LinkedIn" fill="#000000">
    <path fill="#0f1568" id="Oval-1" d="m25,50c13.80712,0 25,-11.19288 25,-25c0,-13.80712 -11.19288,-25 -25,-25c-13.80712,0 -25,11.19288 -25,25c0,13.80712 11.19288,25 25,25zm0,-3c12.15027,0 22,-9.84973 22,-22c0,-12.15027 -9.84973,-22 -22,-22c-12.15027,0 -22,9.84973 -22,22c0,12.15027 9.84973,22 22,22zm-11,-26.88195l0,14.54013l4.71009,0l0,-14.54013l-4.71009,0zm2.6647,-7.11805c-1.61129,0 -2.6647,1.08586 -2.6647,2.51151c0,1.39612 1.02227,2.51325 2.60356,2.51325l0.0301,0c1.64233,0 2.66516,-1.11713 2.66516,-2.51325c-0.03057,-1.42565 -1.02283,-2.51151 -2.63412,-2.51151zm13.91222,7.11805c-2.50074,0 -3.62037,1.41127 -4.24551,2.4013l0,-2.05949l-4.71065,0c0.06208,1.36438 0,14.54014 0,14.54014l4.71065,0l0,-8.12041c0,-0.43456 0.03057,-0.86805 0.15511,-1.17918c0.34041,-0.86815 1.11549,-1.76699 2.41675,-1.76699c1.70507,0 2.38664,1.3333 2.38664,3.28721l0,7.77898l4.7099,0l0.00019,-8.33687c0,-4.4661 -2.32363,-6.54469 -5.42308,-6.54469zm0,0"/>
   </g>
  </g>
 </g>
</svg>