<svg width="50" height="50" xmlns="http://www.w3.org/2000/svg">
 <title/>

 <g>
  <title>background</title>
  <rect fill="none" id="canvas_background" height="402" width="582" y="-1" x="-1"/>
 </g>
 <g>
  <title>Layer 1</title>
  <g id="Page-1" fill-rule="evenodd" fill="none">
   <g id="Twitter" fill="#000000">
    <path fill="#0f1568" id="Oval-1" d="m25,50c13.80712,0 25,-11.19288 25,-25c0,-13.80712 -11.19288,-25 -25,-25c-13.80712,0 -25,11.19288 -25,25c0,13.80712 11.19288,25 25,25zm0,-3c12.15027,0 22,-9.84973 22,-22c0,-12.15027 -9.84973,-22 -22,-22c-12.15027,0 -22,9.84973 -22,22c0,12.15027 9.84973,22 22,22zm-0.31774,-26.4457l0.04768,0.8218l-0.79481,-0.10063c-2.89311,-0.38574 -5.42061,-1.69392 -7.56659,-3.89099l-1.04915,-1.09014l-0.27024,0.80503c-0.57226,1.79455 -0.20665,3.68973 0.98557,4.96436c0.63584,0.70441 0.49278,0.80503 -0.60406,0.38575c-0.38151,-0.13417 -0.71533,-0.2348 -0.74712,-0.18449c-0.11128,0.1174 0.27023,1.64361 0.57226,2.24738c0.4133,0.83858 1.2558,1.66038 2.17778,2.14675l0.77892,0.38575l-0.92198,0.01677c-0.89019,0 -0.92198,0.01677 -0.82661,0.36897c0.31793,1.09015 1.57373,2.24738 2.9726,2.75053l0.98556,0.3522l-0.8584,0.53669c-1.27169,0.77149 -2.76594,1.20755 -4.26018,1.24109c-0.71533,0.01677 -1.30349,0.08386 -1.30349,0.13417c0,0.16772 1.93934,1.10692 3.06797,1.47589c3.38589,1.09015 7.40763,0.62055 10.42792,-1.24109c2.14598,-1.32495 4.29197,-3.95807 5.29343,-6.50734c0.54048,-1.35849 1.08095,-3.84067 1.08095,-5.03145c0,-0.77149 0.04769,-0.87212 0.93787,-1.79455c0.52458,-0.53669 1.01736,-1.12369 1.11274,-1.29141c0.15896,-0.31865 0.14306,-0.31865 -0.66764,-0.03354c-1.35118,0.50315 -1.54194,0.43606 -0.87429,-0.31866c0.49278,-0.53669 1.08094,-1.50943 1.08094,-1.79455c0,-0.05031 -0.23845,0.03354 -0.50868,0.18449c-0.28613,0.16771 -0.92198,0.41929 -1.39887,0.57023l-0.85839,0.28511l-0.77892,-0.55346c-0.4292,-0.30188 -1.03325,-0.63731 -1.35118,-0.73794c-0.8107,-0.2348 -2.05061,-0.20126 -2.78183,0.06708c-1.98703,0.75472 -3.24283,2.70022 -3.09976,4.8302c0,0 -0.14307,-2.12998 0,0zm0,0"/>
   </g>
  </g>
 </g>
</svg>